<mxfile host="app.diagrams.net" modified="2021-02-25T15:56:31.440Z" agent="5.0 (Windows NT 10.0; Win64; x64) AppleWebKit/537.36 (KHTML, like Gecko) Chrome/88.0.4324.150 Safari/537.36 OPR/74.0.3911.107" etag="g-bVHPZ81bvbGKfc69pH" version="14.4.3" type="github">
  <diagram id="0d7cefc2-ccd6-e077-73ed-a8e48b0cddf6" name="Page-1">
    <mxGraphModel dx="1426" dy="783" grid="1" gridSize="10" guides="1" tooltips="1" connect="1" arrows="1" fold="1" page="1" pageScale="1" pageWidth="1169" pageHeight="827" background="#ffffff" math="0" shadow="0">
      <root>
        <mxCell id="0" />
        <mxCell id="1" parent="0" />
        <mxCell id="2" value="" style="swimlane;shadow=0;strokeColor=#4277BB;fillColor=#ffffff;fontColor=#4277BB;align=right;startSize=0;collapsible=0;strokeWidth=3;" parent="1" vertex="1">
          <mxGeometry x="160" y="90" width="813" height="680" as="geometry" />
        </mxCell>
        <mxCell id="28" value="" style="swimlane;shadow=0;strokeColor=#4277BB;fillColor=#ffffff;fontColor=#4277BB;align=right;startSize=0;collapsible=0;strokeWidth=3;" parent="2" vertex="1">
          <mxGeometry x="100" y="190" width="120" height="280" as="geometry" />
        </mxCell>
        <mxCell id="LcAW1kkHPppd8ib1N55a-106" value="" style="aspect=fixed;perimeter=ellipsePerimeter;html=1;align=center;shadow=0;dashed=0;fontColor=#4277BB;labelBackgroundColor=#ffffff;fontSize=12;spacingTop=3;image;image=img/lib/ibm/users/user.svg;" vertex="1" parent="28">
          <mxGeometry x="30" y="16" width="60" height="60" as="geometry" />
        </mxCell>
        <mxCell id="LcAW1kkHPppd8ib1N55a-107" value="&lt;font style=&quot;font-size: 25px&quot;&gt;employee&lt;/font&gt;" style="text;html=1;align=center;verticalAlign=middle;resizable=0;points=[];autosize=1;" vertex="1" parent="28">
          <mxGeometry y="196" width="120" height="20" as="geometry" />
        </mxCell>
        <mxCell id="77" value="" style="swimlane;shadow=0;strokeColor=#4277BB;fillColor=#ffffff;fontColor=#4277BB;align=right;startSize=0;collapsible=0;strokeWidth=3;" parent="2" vertex="1">
          <mxGeometry x="310" y="10" width="148.5" height="530" as="geometry" />
        </mxCell>
        <mxCell id="LcAW1kkHPppd8ib1N55a-110" value="&lt;div style=&quot;text-align: left&quot;&gt;&lt;span style=&quot;font-size: 25px&quot;&gt;Module&lt;/span&gt;&lt;/div&gt;&lt;font&gt;&lt;div style=&quot;text-align: left&quot;&gt;&lt;span style=&quot;font-size: 25px&quot;&gt;Resource&amp;nbsp;&lt;/span&gt;&lt;/div&gt;&lt;span style=&quot;font-size: 25px&quot;&gt;&lt;div style=&quot;text-align: left&quot;&gt;&lt;span&gt;Capacity&lt;/span&gt;&lt;/div&gt;&lt;/span&gt;&lt;span style=&quot;font-size: 25px&quot;&gt;&lt;div style=&quot;text-align: left&quot;&gt;&lt;span&gt;&amp;nbsp;Planner&lt;/span&gt;&lt;/div&gt;&lt;/span&gt;&lt;/font&gt;" style="text;html=1;align=center;verticalAlign=middle;resizable=0;points=[];autosize=1;" vertex="1" parent="77">
          <mxGeometry x="7" y="333" width="130" height="70" as="geometry" />
        </mxCell>
        <mxCell id="LcAW1kkHPppd8ib1N55a-122" value="&lt;div style=&quot;text-align: left&quot;&gt;&lt;span style=&quot;font-size: 25px&quot;&gt;Generation&lt;/span&gt;&lt;/div&gt;&lt;div style=&quot;text-align: left&quot;&gt;&lt;span style=&quot;font-size: 25px&quot;&gt;Dashboard&lt;/span&gt;&lt;/div&gt;" style="text;html=1;align=center;verticalAlign=middle;resizable=0;points=[];autosize=1;" vertex="1" parent="77">
          <mxGeometry x="8.5" y="33" width="140" height="40" as="geometry" />
        </mxCell>
        <mxCell id="LcAW1kkHPppd8ib1N55a-124" value="&lt;div style=&quot;text-align: left&quot;&gt;&lt;span style=&quot;font-size: 25px&quot;&gt;Calendar&lt;/span&gt;&lt;/div&gt;" style="text;html=1;align=center;verticalAlign=middle;resizable=0;points=[];autosize=1;" vertex="1" parent="77">
          <mxGeometry x="8.5" y="113" width="120" height="20" as="geometry" />
        </mxCell>
        <mxCell id="LcAW1kkHPppd8ib1N55a-125" value="&lt;div style=&quot;text-align: left&quot;&gt;&lt;span style=&quot;font-size: 25px&quot;&gt;Capacity&lt;/span&gt;&lt;/div&gt;" style="text;html=1;align=center;verticalAlign=middle;resizable=0;points=[];autosize=1;" vertex="1" parent="77">
          <mxGeometry x="8.5" y="153" width="110" height="20" as="geometry" />
        </mxCell>
        <mxCell id="LcAW1kkHPppd8ib1N55a-131" value="&lt;div style=&quot;text-align: left&quot;&gt;&lt;span style=&quot;font-size: 25px&quot;&gt;Demande&lt;/span&gt;&lt;/div&gt;" style="text;html=1;align=center;verticalAlign=middle;resizable=0;points=[];autosize=1;" vertex="1" parent="77">
          <mxGeometry x="8.5" y="190" width="120" height="20" as="geometry" />
        </mxCell>
        <mxCell id="LcAW1kkHPppd8ib1N55a-132" value="&lt;div style=&quot;text-align: left&quot;&gt;&lt;span style=&quot;font-size: 25px&quot;&gt;Vacation/&lt;/span&gt;&lt;/div&gt;&lt;div style=&quot;text-align: left&quot;&gt;&lt;span style=&quot;font-size: 25px&quot;&gt;Overtime&lt;/span&gt;&lt;/div&gt;" style="text;html=1;align=center;verticalAlign=middle;resizable=0;points=[];autosize=1;" vertex="1" parent="77">
          <mxGeometry x="8.5" y="221.5" width="120" height="40" as="geometry" />
        </mxCell>
        <mxCell id="87" value="Database" style="aspect=fixed;perimeter=ellipsePerimeter;html=1;align=center;shadow=0;dashed=0;image;image=img/lib/ibm/data/data_services.svg;rounded=1;labelBackgroundColor=#ffffff;strokeColor=#666666;strokeWidth=3;fillColor=#C2952D;gradientColor=none;fontSize=14;fontColor=#4277BB;" parent="2" vertex="1">
          <mxGeometry x="250" y="570" width="60" height="60" as="geometry" />
        </mxCell>
        <mxCell id="LcAW1kkHPppd8ib1N55a-113" style="edgeStyle=elbowEdgeStyle;rounded=0;elbow=vertical;html=1;labelBackgroundColor=#ffffff;startArrow=classic;startFill=1;startSize=4;endArrow=classic;endFill=1;endSize=4;jettySize=auto;orthogonalLoop=1;strokeColor=#4277BB;strokeWidth=2;fontSize=14;fontColor=#4277BB;" edge="1" parent="2" target="77">
          <mxGeometry relative="1" as="geometry">
            <mxPoint x="282" y="574.5" as="sourcePoint" />
            <mxPoint x="402" y="574.5" as="targetPoint" />
            <Array as="points">
              <mxPoint x="400" y="557" />
            </Array>
          </mxGeometry>
        </mxCell>
        <mxCell id="LcAW1kkHPppd8ib1N55a-114" value="" style="html=1;labelBackgroundColor=#ffffff;endArrow=classic;endFill=1;endSize=6;jettySize=auto;orthogonalLoop=1;strokeWidth=1;fontSize=14;" edge="1" parent="2">
          <mxGeometry width="60" height="60" relative="1" as="geometry">
            <mxPoint x="602" y="450" as="sourcePoint" />
            <mxPoint x="450" y="450" as="targetPoint" />
          </mxGeometry>
        </mxCell>
        <mxCell id="LcAW1kkHPppd8ib1N55a-115" value="" style="html=1;labelBackgroundColor=#ffffff;endArrow=classic;endFill=1;endSize=6;jettySize=auto;orthogonalLoop=1;strokeWidth=1;fontSize=14;entryX=1.016;entryY=0.776;entryDx=0;entryDy=0;entryPerimeter=0;" edge="1" parent="2">
          <mxGeometry width="60" height="60" relative="1" as="geometry">
            <mxPoint x="310" y="370" as="sourcePoint" />
            <mxPoint x="220.002" y="369.998" as="targetPoint" />
          </mxGeometry>
        </mxCell>
        <mxCell id="LcAW1kkHPppd8ib1N55a-116" value="" style="html=1;labelBackgroundColor=#ffffff;endArrow=classic;endFill=1;endSize=6;jettySize=auto;orthogonalLoop=1;strokeWidth=1;fontSize=14;entryX=1.016;entryY=0.776;entryDx=0;entryDy=0;entryPerimeter=0;" edge="1" parent="2">
          <mxGeometry width="60" height="60" relative="1" as="geometry">
            <mxPoint x="310" y="323" as="sourcePoint" />
            <mxPoint x="220.00199999999995" y="322.998" as="targetPoint" />
          </mxGeometry>
        </mxCell>
        <mxCell id="LcAW1kkHPppd8ib1N55a-117" value="" style="html=1;labelBackgroundColor=#ffffff;endArrow=classic;endFill=1;endSize=6;jettySize=auto;orthogonalLoop=1;strokeWidth=1;fontSize=14;entryX=0.012;entryY=0.787;entryDx=0;entryDy=0;entryPerimeter=0;exitX=1.037;exitY=0.843;exitDx=0;exitDy=0;exitPerimeter=0;" edge="1" parent="2" source="28" target="77">
          <mxGeometry width="60" height="60" relative="1" as="geometry">
            <mxPoint x="370" y="480" as="sourcePoint" />
            <mxPoint x="430" y="420" as="targetPoint" />
          </mxGeometry>
        </mxCell>
        <mxCell id="79" value="" style="swimlane;shadow=0;strokeColor=#4277BB;fillColor=#ffffff;fontColor=#4277BB;align=right;startSize=0;collapsible=0;strokeWidth=3;" parent="2" vertex="1">
          <mxGeometry x="600" y="300" width="138.5" height="220" as="geometry" />
        </mxCell>
        <mxCell id="LcAW1kkHPppd8ib1N55a-108" value="&lt;font style=&quot;font-size: 20px&quot;&gt;Responsables&lt;/font&gt;" style="text;html=1;align=center;verticalAlign=middle;resizable=0;points=[];autosize=1;" vertex="1" parent="79">
          <mxGeometry y="160" width="140" height="20" as="geometry" />
        </mxCell>
        <mxCell id="LcAW1kkHPppd8ib1N55a-109" value="" style="aspect=fixed;perimeter=ellipsePerimeter;html=1;align=center;shadow=0;dashed=0;fontColor=#4277BB;labelBackgroundColor=#ffffff;fontSize=12;spacingTop=3;image;image=img/lib/ibm/users/integrated_digital_experiences.svg;" vertex="1" parent="79">
          <mxGeometry x="40" y="80" width="60" height="60" as="geometry" />
        </mxCell>
        <mxCell id="LcAW1kkHPppd8ib1N55a-133" value="" style="html=1;labelBackgroundColor=#ffffff;endArrow=classic;endFill=1;endSize=6;jettySize=auto;orthogonalLoop=1;strokeWidth=1;fontSize=14;exitX=0.991;exitY=1.003;exitDx=0;exitDy=0;exitPerimeter=0;entryX=0.5;entryY=0;entryDx=0;entryDy=0;" edge="1" parent="2" source="LcAW1kkHPppd8ib1N55a-122" target="79">
          <mxGeometry width="60" height="60" relative="1" as="geometry">
            <mxPoint x="508.5999999999999" y="89.29000000000008" as="sourcePoint" />
            <mxPoint x="600.0039999999999" y="80.00000000000011" as="targetPoint" />
            <Array as="points">
              <mxPoint x="669" y="83" />
            </Array>
          </mxGeometry>
        </mxCell>
        <mxCell id="LcAW1kkHPppd8ib1N55a-134" value="" style="html=1;labelBackgroundColor=#ffffff;endArrow=none;endFill=0;jettySize=auto;orthogonalLoop=1;strokeWidth=1;dashed=1;fontSize=14;exitX=0.011;exitY=0.536;exitDx=0;exitDy=0;exitPerimeter=0;entryX=1.012;entryY=0.539;entryDx=0;entryDy=0;entryPerimeter=0;" edge="1" parent="2" source="77" target="77">
          <mxGeometry width="60" height="60" relative="1" as="geometry">
            <mxPoint x="370" y="310" as="sourcePoint" />
            <mxPoint x="430" y="250" as="targetPoint" />
          </mxGeometry>
        </mxCell>
        <mxCell id="LcAW1kkHPppd8ib1N55a-135" value="Adding new &lt;br&gt;Task&amp;nbsp;" style="text;html=1;align=center;verticalAlign=middle;resizable=0;points=[];autosize=1;" vertex="1" parent="2">
          <mxGeometry x="235" y="294" width="80" height="30" as="geometry" />
        </mxCell>
        <mxCell id="LcAW1kkHPppd8ib1N55a-136" value="updating&amp;nbsp;&lt;br&gt;Firlds" style="text;html=1;align=center;verticalAlign=middle;resizable=0;points=[];autosize=1;" vertex="1" parent="2">
          <mxGeometry x="235" y="440" width="70" height="30" as="geometry" />
        </mxCell>
        <mxCell id="LcAW1kkHPppd8ib1N55a-137" value="updating&amp;nbsp;&lt;br&gt;Tasks" style="text;html=1;align=center;verticalAlign=middle;resizable=0;points=[];autosize=1;" vertex="1" parent="2">
          <mxGeometry x="235" y="340" width="70" height="30" as="geometry" />
        </mxCell>
        <mxCell id="LcAW1kkHPppd8ib1N55a-138" value="" style="html=1;labelBackgroundColor=#ffffff;endArrow=classic;endFill=1;endSize=6;jettySize=auto;orthogonalLoop=1;strokeWidth=1;fontSize=14;" edge="1" parent="2">
          <mxGeometry width="60" height="60" relative="1" as="geometry">
            <mxPoint x="457" y="370" as="sourcePoint" />
            <mxPoint x="600" y="370" as="targetPoint" />
          </mxGeometry>
        </mxCell>
        <mxCell id="LcAW1kkHPppd8ib1N55a-139" value="Adding new &lt;br&gt;Task&amp;nbsp;" style="text;html=1;align=center;verticalAlign=middle;resizable=0;points=[];autosize=1;" vertex="1" parent="2">
          <mxGeometry x="490" y="460" width="80" height="30" as="geometry" />
        </mxCell>
        <mxCell id="LcAW1kkHPppd8ib1N55a-140" value="updating&amp;nbsp;&lt;br&gt;task progression" style="text;html=1;align=center;verticalAlign=middle;resizable=0;points=[];autosize=1;" vertex="1" parent="2">
          <mxGeometry x="490" y="330" width="100" height="30" as="geometry" />
        </mxCell>
      </root>
    </mxGraphModel>
  </diagram>
</mxfile>
